<?xml version="1.0" standalone="no"?>
<!DOCTYPE svg PUBLIC "-//W3C//DTD SVG 20010904//EN"
 "http://www.w3.org/TR/2001/REC-SVG-20010904/DTD/svg10.dtd">
<svg version="1.0" xmlns="http://www.w3.org/2000/svg"
 width="500.000000pt" height="242.000000pt" viewBox="0 0 500.000000 242.000000"
 preserveAspectRatio="xMidYMid meet">

<g transform="translate(0.000000,242.000000) scale(0.100000,-0.100000)"
fill="white" stroke="none">
<path d="M70 1921 l0 -461 265 0 265 0 0 226 0 226 313 -5 c337 -4 388 -11
502 -68 111 -55 204 -183 236 -324 l12 -55 267 0 268 0 -15 78 c-78 419 -310
673 -713 778 -187 49 -276 56 -857 61 l-543 5 0 -461z"/>
<path d="M2950 1921 l0 -461 265 0 265 0 0 226 0 226 333 -4 c372 -5 406 -10
477 -74 56 -51 75 -108 75 -229 0 -62 -5 -109 -13 -122 l-13 -23 249 0 250 0
20 49 c36 81 47 178 34 286 -35 283 -191 442 -517 525 -178 46 -261 51 -857
57 l-568 5 0 -461z"/>
<path d="M3892 1350 l-33 -40 35 0 c23 0 38 6 45 17 9 17 10 17 29 0 12 -11
31 -17 46 -15 l27 3 -31 38 c-43 50 -74 50 -118 -3z"/>
<path d="M2823 1270 c-87 -20 -137 -81 -137 -165 0 -64 30 -116 82 -141 30
-15 60 -19 152 -19 104 0 119 2 154 24 87 54 101 178 28 254 -46 48 -180 71
-279 47z m162 -105 c41 -40 33 -105 -16 -130 -45 -24 -87 -19 -120 14 -60 61
-23 141 66 141 35 0 52 -6 70 -25z"/>
<path d="M870 1105 l0 -165 134 0 c199 0 292 23 321 81 9 16 15 56 15 93 0 55
-4 69 -26 95 -40 48 -101 61 -286 61 l-158 0 0 -165z m304 64 c19 -15 26 -30
26 -55 0 -70 -36 -94 -141 -94 l-59 0 0 85 0 85 74 0 c59 0 78 -4 100 -21z"/>
<path d="M1450 1105 l0 -165 200 0 200 0 0 40 0 40 -130 0 -130 0 0 30 0 30
105 0 105 0 0 30 0 30 -105 0 c-105 0 -105 0 -105 25 l0 24 123 3 122 3 3 38
3 37 -195 0 -196 0 0 -165z"/>
<path d="M2140 1106 l0 -166 65 0 65 0 0 50 0 50 63 0 c73 0 103 -16 115 -63
8 -32 9 -32 75 -35 l68 -3 -7 28 c-12 51 -24 73 -39 79 -12 5 -9 13 15 40 33
39 39 78 16 123 -25 48 -55 55 -253 59 l-183 4 0 -166z m294 78 c9 -3 16 -16
16 -29 0 -30 -16 -35 -106 -35 l-74 0 0 35 0 35 74 0 c41 0 81 -3 90 -6z"/>
<path d="M3260 1105 l0 -165 195 0 195 0 0 40 0 40 -125 0 -125 0 0 125 0 125
-70 0 -70 0 0 -165z"/>
<path d="M3750 1105 l0 -165 200 0 200 0 0 40 0 40 -130 0 -130 0 0 30 0 30
105 0 105 0 0 30 0 30 -105 0 -105 0 0 25 0 25 120 0 120 0 0 40 0 40 -190 0
-190 0 0 -165z"/>
<path d="M70 445 l0 -415 528 0 c573 1 674 7 862 54 372 94 599 312 700 669
33 118 59 107 -248 107 l-267 0 -18 -50 c-29 -82 -96 -169 -165 -217 -120 -82
-249 -103 -628 -103 l-234 0 0 185 0 185 -265 0 -265 0 0 -415z"/>
<path d="M2950 445 l0 -415 265 0 265 0 0 410 0 410 460 0 460 0 0 -410 0
-410 265 0 265 0 0 393 c0 215 -3 402 -6 415 l-6 22 -984 0 -984 0 0 -415z"/>
</g>
</svg>
